<svg width="1440" height="544" viewBox="0 0 1440 544" fill="none" xmlns="http://www.w3.org/2000/svg">
<g filter="url(#filter0_f_212_16580)">
<g clip-path="url(#clip0_212_16580)">
<rect y="14" width="1440" height="544" fill="white"/>
<path opacity="0.15" d="M1374.19 251.88C1407.7 288.97 1434.88 353.451 1384.8 398.973C1379.63 403.666 1331.18 446.248 1258.3 440.96C1169.54 434.52 1151.34 364.812 1053.38 346.716C947.298 327.119 885.037 393.425 833.231 373.056C771.971 348.97 764.451 219.071 875.331 163.396C1008.91 96.3255 1284.08 152.151 1374.19 251.88Z" fill="#EBC136"/>
<path opacity="0.15" d="M539.245 443.639C570.307 424.569 604.155 386.148 583.134 347.285C580.966 343.278 560.262 306.654 511.679 297.834C452.505 287.09 423.162 330.52 355.092 325.996C281.375 321.096 257.688 266.301 218.971 271.114C173.189 276.806 135.627 362.21 193.513 418.149C263.248 485.538 455.723 494.917 539.245 443.639Z" fill="#EBC136"/>
<path opacity="0.15" d="M721.575 335.89C706.187 314.799 690.464 274.221 703.947 236.859C705.337 233.007 718.519 197.857 744.877 192.297C776.983 185.526 790.013 230.799 826.481 230.823C865.973 230.849 881.817 177.774 902.122 185.155C926.131 193.883 941.044 281.57 906.944 333.508C865.865 396.075 762.953 392.602 721.575 335.89Z" fill="#EBC136"/>
<path opacity="0.15" d="M709.467 288.802C726.285 278.124 744.622 256.633 733.277 234.936C732.107 232.699 720.931 212.254 694.654 207.363C662.649 201.407 646.745 225.693 609.923 223.218C570.047 220.538 557.27 189.943 536.322 192.661C511.55 195.876 491.171 243.62 522.448 274.828C560.128 312.423 664.247 317.514 709.467 288.802Z" fill="#EBC136"/>
<path opacity="0.15" d="M1433.62 262.365C1451.76 246.046 1471.7 213.494 1459.95 181.192C1458.74 177.861 1447.14 147.43 1419.17 140.595C1385.09 132.269 1367.7 168.965 1328.42 165.946C1285.89 162.678 1272.75 117.066 1250.34 121.534C1223.83 126.818 1201.28 198.751 1234.15 244.934C1273.76 300.569 1384.86 306.244 1433.62 262.365Z" fill="#8047F8"/>
<path opacity="0.15" d="M1445.61 391.852C1459.71 402.804 1475.15 424.725 1465.84 446.622C1464.88 448.88 1455.7 469.511 1433.82 474.261C1407.16 480.047 1393.73 455.312 1363.03 457.533C1329.79 459.938 1319.35 490.841 1301.86 487.922C1281.17 484.471 1263.84 435.932 1289.71 404.552C1320.88 366.749 1407.69 362.404 1445.61 391.852Z" fill="#8047F8"/>
<path opacity="0.15" d="M246.937 150.891C259.507 172.616 271.932 214.056 259.695 251.491C258.433 255.351 246.5 290.558 224.055 295.502C196.717 301.524 186.675 255.405 155.792 254.442C122.347 253.4 107.765 306.665 90.7319 298.678C70.5904 289.234 59.883 200.175 89.8998 148.53C126.06 86.3152 213.139 92.4762 246.937 150.891Z" fill="#EBC136"/>
<path opacity="0.15" d="M888.507 446.947C862.621 427.727 837.462 389.18 863.926 350.528C866.654 346.543 892.434 310.123 939.6 301.62C997.048 291.262 1017.11 334.78 1081.84 330.683C1151.94 326.246 1183.66 271.712 1219.2 276.753C1261.23 282.713 1281.76 368.166 1217.71 423.631C1140.55 490.449 958.112 498.627 888.507 446.947Z" fill="#EBC136"/>
<path opacity="0.15" d="M814.922 413.538C836.564 394.513 859.249 357.904 841.967 324.187C840.185 320.71 823.248 288.989 787.43 283.962C743.805 277.84 724.654 318.687 674.868 318.695C620.953 318.704 600.92 270.808 572.979 277.46C539.939 285.327 516.942 364.444 561.931 411.321C616.129 467.792 756.728 464.695 814.922 413.538Z" fill="#8047F8"/>
<path opacity="0.15" d="M862.472 155.004C903.019 165.666 946.079 185.465 915.336 202.257C912.167 203.989 881.993 219.762 816.11 221.009C735.863 222.528 699.181 200.67 607.369 198.784C507.942 196.742 472.601 220.767 420.852 216.269C359.659 210.95 314.602 169.145 396 146.591C494.058 119.42 753.443 126.335 862.472 155.004Z" fill="#8047F8"/>
<path opacity="0.15" d="M195.139 396.866C214.225 374.714 234.35 332.381 219.454 293.978C217.918 290.018 203.31 253.899 171.98 248.685C133.82 242.335 116.761 289.475 73.1632 290.25C25.9491 291.089 8.74424 236.467 -15.7709 244.526C-44.7595 254.056 -65.4579 345.145 -26.3915 398.214C20.6708 462.144 143.816 456.431 195.139 396.866Z" fill="#8047F8"/>
</g>
<rect x="0.5" y="14.5" width="1439" height="543" stroke="black"/>
</g>
<defs>
<filter id="filter0_f_212_16580" x="-160" y="-146" width="1760" height="864" filterUnits="userSpaceOnUse" color-interpolation-filters="sRGB">
<feFlood flood-opacity="0" result="BackgroundImageFix"/>
<feBlend mode="normal" in="SourceGraphic" in2="BackgroundImageFix" result="shape"/>
<feGaussianBlur stdDeviation="80" result="effect1_foregroundBlur_212_16580"/>
</filter>
<clipPath id="clip0_212_16580">
<rect y="14" width="1440" height="544" fill="white"/>
</clipPath>
</defs>
</svg>
